<?xml version="1.0" encoding="UTF-8"?>
<!--
  VoiceKeyboard menu bar icon — template image (single solid colour).
  Generated by tracing howling-husky.png via potrace.

  Regenerate command (note the double-dash flags written here as
  single hyphens so this XML comment stays valid; use the doubled
  form when you actually run the commands):
    sips -s format bmp howling-husky.png -out /tmp/h.bmp
    potrace /tmp/h.bmp -s -t 8 -a 1.0 -tight -o menubar-icon.svg

  Single black-filled path on transparent background. When marked
  as a template image (see Contents.json), macOS tints the husky
  silhouette to whatever colour the system menu bar wants.
-->
<!DOCTYPE svg PUBLIC "-//W3C//DTD SVG 20010904//EN"
 "http://www.w3.org/TR/2001/REC-SVG-20010904/DTD/svg10.dtd">
<svg version="1.0" xmlns="http://www.w3.org/2000/svg"
 width="733.798724pt" height="904.478422pt" viewBox="0 0 733.798724 904.478422"
 preserveAspectRatio="xMidYMid meet">
<metadata>
Created by potrace 1.16, written by Peter Selinger 2001-2019
</metadata>
<g transform="translate(-229.128589,988.904689) scale(0.100000,-0.100000)"
fill="#000000" stroke="none">
<path d="M3295 9857 c-109 -54 -207 -157 -237 -248 -9 -25 -36 -75 -60 -110
-90 -129 -157 -309 -177 -474 -24 -196 -6 -549 39 -744 20 -89 43 -232 38
-236 -2 -2 -26 13 -55 32 -122 81 -254 104 -341 58 -58 -30 -69 -40 -108 -90
-33 -42 -53 -82 -80 -155 -21 -58 -30 -280 -15 -375 17 -111 81 -260 164 -385
62 -93 70 -104 104 -147 18 -23 33 -46 33 -51 0 -5 7 -16 16 -23 9 -8 26 -28
38 -45 174 -260 165 -245 223 -355 23 -42 46 -85 51 -95 19 -34 82 -181 82
-192 0 -5 11 -34 24 -63 13 -30 28 -74 34 -99 5 -25 18 -72 27 -105 50 -175
67 -491 40 -730 -30 -273 -121 -599 -250 -895 -20 -47 -45 -106 -56 -132 -10
-25 -27 -61 -39 -80 -11 -18 -20 -36 -20 -40 0 -13 43 -8 109 12 35 11 66 18
69 15 3 -3 -5 -40 -18 -83 -54 -178 -97 -381 -117 -557 -36 -301 -14 -861 41
-1075 8 -30 19 -82 26 -115 21 -106 112 -393 170 -535 49 -118 113 -251 190
-390 72 -130 93 -155 153 -186 203 -105 411 -205 457 -219 l24 -8 -28 39 c-16
22 -50 66 -75 99 -40 52 -200 290 -266 395 -34 54 -79 134 -133 235 -42 82
-142 311 -142 329 0 7 -9 31 -20 54 -11 22 -20 46 -20 52 0 7 -13 51 -29 98
-38 114 -88 326 -101 432 -6 47 -16 123 -22 170 -6 47 -11 173 -12 280 0 220
28 489 69 645 12 50 26 110 30 134 8 47 118 390 137 425 17 31 57 147 49 144
-123 -61 -185 -82 -163 -55 10 12 58 156 111 337 17 58 45 179 63 270 32 165
32 166 32 470 l0 305 -37 159 c-35 150 -65 247 -121 396 -27 72 -126 269 -170
340 -69 110 -87 138 -118 182 -35 50 -192 264 -227 310 -12 14 -21 30 -21 35
0 5 -11 25 -26 44 -117 158 -174 412 -124 559 23 69 71 130 102 130 24 0 130
-55 184 -95 22 -16 60 -43 83 -60 23 -16 50 -37 59 -46 27 -25 123 -84 177
-110 68 -32 157 -33 201 -2 111 79 134 269 60 491 -31 92 -191 427 -220 462
-7 8 -21 35 -30 60 -10 25 -23 54 -31 66 -19 29 -56 157 -66 228 -9 64 1 156
26 246 15 57 76 182 102 212 15 16 17 16 45 -7 17 -14 60 -40 96 -57 60 -29
76 -32 157 -33 83 0 96 3 160 34 39 19 85 47 103 63 18 15 36 28 40 28 13 0
35 -21 103 -100 35 -41 71 -81 79 -90 8 -8 130 -150 270 -315 457 -537 521
-598 659 -631 66 -16 83 -16 214 -3 78 8 214 14 302 14 154 -1 164 -2 260 -34
55 -19 120 -48 145 -64 138 -95 240 -234 301 -412 l34 -100 -1 -190 c0 -174
-2 -195 -23 -250 -12 -33 -27 -76 -33 -95 -16 -53 -75 -139 -137 -197 -53 -50
-127 -88 -214 -109 -26 -6 -27 -8 -12 -23 8 -10 15 -21 15 -24 0 -4 14 -26 30
-49 17 -22 30 -46 30 -52 0 -6 8 -23 17 -36 28 -39 79 -164 112 -269 86 -277
86 -618 0 -890 -16 -51 -38 -109 -48 -130 l-19 -36 -7 40 c-16 98 -123 360
-155 380 -5 3 -11 -16 -15 -42 -10 -82 -103 -348 -145 -413 -6 -8 -23 -40 -39
-71 -16 -30 -36 -61 -45 -68 -9 -8 -16 -17 -16 -22 0 -26 -178 -233 -297 -344
-187 -176 -351 -341 -412 -415 -34 -41 -70 -84 -80 -95 -57 -61 -180 -270
-241 -407 -27 -63 -90 -254 -90 -274 0 -14 2 -15 19 -3 31 23 153 104 196 130
59 37 258 132 304 144 18 6 22 4 16 -6 -18 -30 -71 -105 -81 -114 -15 -13
-118 -173 -147 -227 -13 -24 -30 -54 -39 -68 -15 -23 -67 -137 -123 -270 -78
-182 -125 -432 -132 -697 -3 -107 -1 -193 3 -193 5 0 21 22 36 49 15 26 34 54
43 61 8 7 15 17 15 22 0 10 133 192 165 224 11 12 45 50 75 85 103 120 195
211 320 318 69 59 135 113 147 121 11 8 51 36 88 62 36 27 70 48 74 48 5 0 14
7 21 15 12 14 41 33 179 113 70 41 318 162 331 162 5 0 40 13 77 29 38 16 108
42 158 57 97 30 307 75 315 68 2 -3 -7 -15 -22 -27 -29 -25 -127 -172 -170
-257 -47 -92 -95 -219 -124 -335 -26 -102 -29 -125 -29 -300 0 -182 2 -195 32
-310 47 -172 84 -261 188 -450 16 -27 36 -59 45 -70 9 -11 20 -27 23 -35 4 -8
27 -42 52 -75 25 -33 56 -76 69 -95 13 -19 74 -93 136 -165 130 -151 115 -134
272 -297 68 -70 128 -133 134 -140 14 -16 172 -164 259 -243 37 -33 78 -70 92
-83 16 -15 31 -21 42 -16 9 3 52 19 96 34 44 15 91 32 105 38 14 6 68 27 120
48 148 57 317 131 455 201 50 26 104 52 120 60 17 8 37 19 45 24 8 5 35 19 60
32 25 12 59 32 77 45 17 12 35 22 41 22 5 0 28 13 50 30 23 16 44 30 47 30 9
0 376 246 385 258 3 4 34 29 70 56 36 27 76 59 90 72 14 13 42 38 64 56 130
111 350 333 425 429 l20 26 -29 44 c-16 24 -43 62 -59 84 -17 22 -38 51 -48
65 -30 43 -135 184 -162 216 -14 18 -37 47 -51 65 -32 42 -153 195 -182 231
-13 15 -34 41 -48 59 -20 25 -276 325 -366 429 -127 146 -413 492 -447 540 -9
14 -36 50 -58 80 -72 98 -127 181 -128 193 -1 4 7 4 17 -2 54 -28 375 -40 435
-16 17 7 15 11 -15 37 -82 72 -162 147 -201 187 -88 94 -141 153 -172 193 -29
36 -101 135 -110 149 -5 9 -31 49 -57 87 -47 71 -56 85 -115 190 -31 54 -105
203 -144 286 l-18 39 47 24 c126 63 247 144 406 273 10 8 73 69 140 135 120
119 179 185 246 278 19 27 45 61 58 77 12 15 22 31 22 35 0 3 16 27 35 52 19
25 35 50 35 54 0 4 10 23 23 41 24 36 67 122 116 231 40 90 60 219 43 283 -20
73 -63 108 -178 142 -93 28 -434 84 -599 98 -38 3 -136 14 -217 25 -80 10
-197 23 -260 29 -255 23 -297 31 -321 61 -28 36 -68 89 -119 159 -22 30 -48
64 -59 75 -10 11 -45 52 -77 90 -132 163 -318 349 -464 467 -75 61 -96 76
-158 118 -36 24 -78 52 -94 63 -120 82 -403 192 -571 222 -125 23 -355 30
-500 16 -260 -26 -288 -26 -339 0 -29 14 -74 53 -114 97 -71 80 -104 116 -138
154 -11 12 -94 109 -184 213 -90 105 -171 199 -181 210 -34 37 -74 84 -109
125 -19 23 -43 52 -55 64 -11 12 -65 74 -120 136 -191 217 -261 281 -370 341
-54 30 -70 34 -155 37 -92 3 -97 2 -165 -31z m5055 -2946 c85 -11 177 -26 204
-32 l48 -12 -5 -41 c-5 -36 -39 -126 -68 -179 -6 -10 -20 -37 -32 -60 -19 -37
-72 -121 -124 -197 -110 -159 -357 -406 -510 -510 -12 -8 -48 -34 -81 -57 -79
-55 -236 -138 -342 -180 -130 -51 -321 -96 -415 -97 l-79 -1 -14 55 c-31 132
4 296 79 367 43 41 163 88 259 102 132 20 321 93 402 155 107 82 138 111 204
189 41 48 74 94 74 102 0 18 -8 18 -200 5 -339 -24 -621 -93 -780 -191 -26
-16 -51 -29 -55 -29 -4 0 -20 -11 -37 -25 -57 -48 -58 -29 -5 115 26 71 52
125 95 196 41 68 132 160 206 209 103 68 224 102 491 139 17 2 143 3 280 1
186 -2 290 -8 405 -24z"/>
<path d="M5095 7994 c-68 -10 -225 -48 -225 -54 0 -7 78 -40 94 -40 15 0 160
-73 203 -102 23 -15 46 -28 51 -28 5 0 16 -7 23 -16 8 -9 30 -27 49 -39 43
-27 223 -207 256 -255 14 -19 34 -50 46 -68 30 -47 38 -27 38 93 0 198 -66
346 -195 435 -75 51 -242 88 -340 74z"/>
</g>
</svg>
